<?xml version="1.0" encoding="UTF-8"?>
<svg width="56px" height="53px" viewBox="0 0 56 53" version="1.1" xmlns="http://www.w3.org/2000/svg" xmlns:xlink="http://www.w3.org/1999/xlink">
    <!-- Generator: Sketch 63.1 (92452) - https://sketch.com -->
    <title>metric_distance</title>
    <desc>Created with Sketch.</desc>
    <defs>
        <path d="M38.5004938,27.691125 L25.4699938,39.178125 C24.9686188,39.619125 24.3464938,39.850125 23.6718688,39.850125 C23.2229938,39.850125 22.3672438,39.739875 21.6821188,38.994375 C21.2279938,38.5035 20.9996188,37.876125 21.0337438,37.22775 C21.0652438,36.574125 21.3618688,35.965125 21.8711188,35.518875 L34.9042438,24.031875 C35.3977438,23.59875 36.0356188,23.3625 36.6997438,23.3625 C37.1486188,23.3625 38.0069938,23.475375 38.6921188,24.21825 C39.1436188,24.709125 39.3746188,25.3365 39.3404938,25.98225 C39.3011188,26.651625 38.9992438,27.25275 38.5004938,27.691125 L38.5004938,27.691125 Z M40.6267438,22.441125 C39.6318688,21.359625 38.2012438,20.7375 36.6997438,20.7375 C35.3951188,20.7375 34.1403688,21.207375 33.1717438,22.063125 L20.1333688,33.550125 C19.0938688,34.46625 18.4822438,35.723625 18.4113688,37.088625 C18.3404938,38.448375 18.8129938,39.755625 19.7474938,40.768875 C20.7449938,41.855625 22.1756188,42.475125 23.6718688,42.475125 C24.9791188,42.475125 26.2338688,42.002625 27.2024938,41.1495 L40.2356188,29.6625 C41.2777438,28.74375 41.8893688,27.486375 41.9602438,26.11875 C42.0337438,24.761625 41.5586188,23.457 40.6267438,22.441125 L40.6267438,22.441125 Z M39.5399938,41.33325 L33.5051188,46.654125 C30.8013688,49.035 27.3101188,50.3475 23.6744938,50.3475 C19.9916188,50.3475 16.4662438,49.00875 13.7493688,46.575375 L13.1981188,46.081875 L15.4766188,44.076375 L15.9097438,44.459625 C18.0464938,46.3365 20.8053688,47.368125 23.6744938,47.368125 C26.5462438,47.368125 29.3051188,46.33125 31.4392438,44.449125 L37.4924938,39.115125 L39.5399938,41.33325 Z M55.1009938,26.782875 C54.8516188,31.586625 52.6964938,36.007125 49.0398688,39.230625 L35.9936188,50.728125 C32.6073688,53.704875 28.2341188,55.3455 23.6771188,55.3455 C18.4533688,55.3455 13.4579938,53.174625 9.96936881,49.38675 C6.69074381,45.819375 5.02386881,41.223 5.27324381,36.437625 C5.52261881,31.639125 7.66986881,27.22125 11.3159938,23.99775 L24.3701188,12.495 C27.7537438,9.510375 32.1322438,7.8645 36.6971188,7.8645 C41.9182438,7.8645 46.9136188,10.038 50.3996188,13.8285 C53.6808688,17.39325 55.3529938,21.994875 55.1009938,26.782875 L55.1009938,26.782875 Z M36.6918688,5.25 C31.4838688,5.25 26.4911188,7.12425 22.6323688,10.523625 L9.58349381,22.029 C5.40186881,25.722375 2.93961881,30.79125 2.65349381,36.30375 C2.36474381,41.797875 4.27836881,47.07675 8.03999381,51.16125 C12.0116188,55.482 17.7157438,57.96 23.6823688,57.96 C28.8798688,57.96 33.8699938,56.091 37.7287438,52.696875 L50.7749938,41.199375 C54.9644938,37.506 57.4319938,32.4345 57.7233688,26.919375 C58.0121188,21.42525 56.0984938,16.14375 52.3368688,12.051375 C48.3573688,7.728 42.6558688,5.25 36.6918688,5.25 L36.6918688,5.25 Z" id="path-1"></path>
    </defs>
    <g id="Page-1" stroke="none" stroke-width="1" fill="none" fill-rule="evenodd">
        <g id="stats" transform="translate(-280.000000, -5.000000)">
            <g id="metric_distance" transform="translate(278.000000, 0.000000)">
                <g id="Icon-/-Metrics-/-icn_distance_line">
                    <g>
                        <rect id="Rectangle-250" x="0" y="0" width="63" height="63"></rect>
                        <mask id="mask-2" fill="white">
                            <use xlink:href="#path-1"></use>
                        </mask>
                        <use id="Fill-1" fill="#2E3134" xlink:href="#path-1"></use>
                        <g id="shark_grey" mask="url(#mask-2)" fill="#2E3134">
                            <rect id="Rectangle-4" x="0" y="0" width="63" height="63"></rect>
                        </g>
                    </g>
                </g>
            </g>
        </g>
    </g>
</svg>